<?xml version="1.0" encoding="utf-8"?>
<!-- Generator: Adobe Illustrator 26.2.1, SVG Export Plug-In . SVG Version: 6.00 Build 0)  -->
<svg version="1.1"
	 id="svg2" xmlns:cc="http://creativecommons.org/ns#" xmlns:dc="http://purl.org/dc/elements/1.1/" xmlns:rdf="http://www.w3.org/1999/02/22-rdf-syntax-ns#" xmlns:svg="http://www.w3.org/2000/svg"
	 xmlns="http://www.w3.org/2000/svg" xmlns:xlink="http://www.w3.org/1999/xlink" x="0px" y="0px" viewBox="0 0 502.3 417.2"
	 style="enable-background:new 0 0 502.3 417.2;" xml:space="preserve">
<style type="text/css">
	.st0{fill:#FAFAFA;}
</style>
<g id="g12" transform="scale(0.1)">
	<path id="path18" class="st0" d="M3501.9,1086.9c11.7,38.9,20.8,78.9,27.2,119.5c22.4-10.1,47.5-16,74.1-16h297.1
		c98.1,0,178.1,80,178.1,178.1s-80,178.1-178.1,178.1h-297.1c-28.8,0-56-6.9-80-19.2c-11.2,57.1-27.2,112.5-48.5,166.4
		c28.8,0.5,57.6,9.1,83.2,23.5l257.1,148.8c84.8,49.1,114.1,157.9,65.1,243.2c-32,54.9-90.7,89.1-154.1,89.1
		c-31.5,0-61.9-8.5-89.1-24l-257.1-148.8c-28.3-16.5-50.1-38.9-65.6-65.6c-12.3,14.4-25.1,28.8-38.4,42.7
		c-94.4,98.1-146.1,220.8-146.1,345.6v408.5h-15.5c4.3,13.3,5.9,27.7,5.9,42.1c0,90.1-69.9,163.7-157.9,170.7
		c3.7,14.4,5.9,29.9,5.9,45.3c0,94.9-76.8,171.7-171.7,171.7h-323.2l-205.9,985.6c350.4-248,1531.2-571.7,2357.3-20.3L5023,1356.7
		C4494.9,1035.2,3932.3,1013.9,3501.9,1086.9"/>
	<path id="path20" class="st0" d="M2217.6,3014.9c0-15.5,2.1-30.4,6.4-44.8c-89.1-6.4-159.5-80.5-159.5-171.2
		c0-14.4,1.6-28.8,5.9-42.1h-5.9v-408.5c0-127.5-48.5-246.9-136.5-336c-17.1-17.1-33.1-34.7-48-52.8c-14.9,26.7-37.3,49.6-65.6,66.1
		l-257.1,148.8c-26.7,15.5-57.6,24-89.1,24c-63.5,0-122.1-34.1-154.1-89.1c-49.1-85.3-19.7-194.1,65.1-243.2l257.6-148.8
		c25.1-14.4,54.4-22.9,83.7-23.5c-21.3-53.9-37.9-109.9-48.5-166.9c-24,12.8-51.7,19.7-81.1,19.7h-297.1
		c-98.1,0-178.1-80-178.1-178.1s80-178.1,178.1-178.1h297.1c26.7,0,52.3,5.9,74.7,16.5c8.5-57.1,22.4-112,40.5-165.3
		c-24.5-2.1-48-9.6-69.3-21.9l-257.6-148.8c-84.8-49.1-114.1-157.9-65.1-243.2c31.5-54.9,90.7-89.1,154.1-89.1
		c31.5,0,61.9,8.5,89.1,24l257.1,148.3c20.3,11.7,37.9,27.2,51.7,44.8c28.3-35.2,59.2-68.3,92.3-98.7
		C1593.1,515.7,1168,451.2,814.9,551.5L0,3346.1C873.6,3117.8,1998.4,3793,2170.7,4152l202.1-966.4
		C2285.9,3177.6,2217.6,3104.5,2217.6,3014.9"/>
	<g id="XMLID_00000055665012050857341520000005471365716006407359_">
		<g>
			<path class="st0" d="M3304.4,1116.1c22.3,71.1,33.5,145.4,33.5,221.4c0,192.9-73.8,375.7-207.5,514.4
				c-143.7,148.8-222.6,338.3-222.6,533.4v181.7h-295.2H2507h-221.4v-181.7c0-199.6-76.5-386.3-215.2-526.2
				c-152.6-154.3-229.8-367.4-211.9-584.8c19-227.1,142-426.1,320.9-548.5c106.8-73.3,233.7-119.1,370.2-127.5
				c206.8-12.9,404.3,57.6,554.6,199C3199.3,886.9,3267.5,995.9,3304.4,1116.1z"/>
			<path class="st0" d="M3426.6,1348.3v0.5c0,9.6,0,19.8-1,29.9v2.7c-7.5,203.7-88.6,395.7-231,543.4
				c-114.6,119-177.6,269.4-177.6,423.5v293.3v2.7h-430.4h-100.8H2177v-6.4v-289.6c0-157.3-59.7-305.1-169-415.5
				c-146.7-147.7-231.5-345.6-239.5-552v-3.2c-1.1-10.6-1.1-19.2-1.1-29.8c0.6-0.6,0.6-0.6,0-1.1c0-22.9,0.6-44.8,2.7-68.3
				c8.5-100.2,34.7-195.2,76.3-282.6v-0.6c15.4-32.5,33-63.4,52.8-93.3c1-0.5,0.5-1.1,0.5-1.1c47.5-74.1,106.7-140.2,174.9-195.2
				c13.4-11.2,27.2-21.8,41.6-32c38.4-27.7,79-51.7,122.2-72.5c86.9-42.1,181.8-69.3,282.1-78.4c7.5-1.1,15.5-1.6,23.5-2.1
				c43.7-2.7,86.9-2.2,129.6,2.1c0.5,0,0.5,0,0.5,0c98.7,8.5,193.1,34.7,281.1,77.3c43.7,20.8,85.3,45.4,124.8,73.6
				c0.5,0.6,0.5,0.6,1,0.6c29.9,21.8,57.1,44.2,84.3,69.8c49.6,46.4,91.7,97.6,128.5,154.2c0,0.5,0,0.5,0.6,1
				c19.7,30.4,37.3,63,52.8,96c17,36.3,32,74.2,43.2,113.1c24,76.8,36.2,156.8,36.2,238.4c0,0.5,0,0.5,0,0.5
				C3426.1,1347.8,3426.1,1347.8,3426.6,1348.3z M3304,1348.8c0-72.5-10.7-143.4-32-211.2c-35.2-114.6-100.3-218.6-191-304
				c-143.4-134.9-331.7-202.1-529-189.8c-130.2,8-251.2,51.7-353.1,121.6c-170.7,116.8-288,306.6-306.1,523.2
				c-17.1,207.4,56.5,410.6,202.1,557.8c132.3,133.4,205.3,311.5,205.3,501.9v173.3h211.2h100.8h281.6v-173.3
				c0-186.1,75.2-366.9,212.3-508.8C3233.6,1707.2,3304,1532.8,3304,1348.8z"/>
		</g>
	</g>
	<path id="path24" class="st0" d="M2947.7,2858.1c33.1,0,59.2-26.7,59.2-59.2c0-16.5-6.9-31.5-17.6-42.1
		c-10.7-10.7-25.1-17.1-41.6-17.1h-381.3h-100.8h-228.8c-16.5,0-30.9,6.4-41.6,17.1c-10.7,10.7-17.6,25.6-17.6,42.1
		c0,32.5,26.1,59.2,59.2,59.2h82.7h121.6h100.8h324.8H2947.7"/>
	<path id="path26" class="st0" d="M2521.6,2955.7h-132.3c-14.4,0-28.3,5.3-38.4,14.9c-12.8,10.1-20.8,26.1-20.8,44.3
		c0,32.5,26.7,59.2,59.2,59.2h6.4h100.8h299.7c32.5,0,59.2-26.7,59.2-59.2c0-18.1-8-34.1-20.8-44.3c-10.1-9.6-24-14.9-38.4-14.9
		H2521.6"/>
	<path id="path28" class="st0" d="M2597.3,427.7c18.1,0,35.2-8,46.9-20.3c11.2-11.7,18.1-27.7,18.1-45.3v-297
		c0-36.3-29.3-65.1-65.1-65.1c-36.3,0-65.6,28.8-65.6,65.1v297.1c0,18.1,6.9,34.1,18.7,45.9C2562.1,420.3,2579.2,427.7,2597.3,427.7
		"/>
	<path id="path30" class="st0" d="M2037.3,529.6c10.1,17.1,26.7,28.3,44.8,31.5c3.7,0.5,8,1.1,11.7,1.1c11.2,0,22.4-2.7,32.5-8.5
		c14.9-8.5,25.1-21.9,29.9-36.8c5.3-17.1,3.7-35.7-5.9-52.3L2002,207c-18.1-30.9-58.1-42.1-89.6-24c-30.9,18.1-41.6,58.1-24,89.6
		L2037.3,529.6"/>
	<path id="path32" class="st0" d="M1782.4,898.1c6.4-11.2,9.1-23.5,8.5-35.2v-0.5c-1.1-21.9-12.8-42.1-32.5-53.9l-257.6-148.3
		c-30.9-18.1-70.9-7.5-89.1,24c-18.1,30.9-7.5,70.9,24,89.1l257.1,148.8c10.7,5.9,21.9,8.5,32.5,8.5c11.2,0,22.4-2.7,32-8
		c0-0.5,0.5-0.5,0.5-0.5C1768,916.8,1776.5,908.3,1782.4,898.1"/>
	<path id="path34" class="st0" d="M1590.9,1302.9h-297.1c-36.3,0-65.6,29.3-65.6,65.6c0,36.3,29.3,65.1,65.6,65.1h297.1
		c33.6,0,61.3-25.6,64.5-58.7v-0.5c0.5-2.1,0.5-3.7,0.5-5.9c0-3.7-0.5-6.9-1.1-10.7v-2.7C1648.5,1325.3,1622.4,1302.9,1590.9,1302.9
		"/>
	<path id="path36" class="st0" d="M1692.8,1814.9l-257.1,148.8c-31.5,17.6-42.1,57.6-24,89.1c12.3,20.8,34.1,32.5,56.5,32.5
		c11.2,0,22.4-2.7,32.5-8.5l257.6-148.8c30.9-17.6,42.1-57.6,24-89.1C1764.3,1807.5,1724.3,1796.8,1692.8,1814.9"/>
	<path id="path38" class="st0" d="M3411.7,1838.9c-18.1,31.5-6.9,71.5,24,89.1l257.6,148.8c10.1,5.9,21.3,8.5,32.5,8.5
		c22.4,0,44.3-11.7,56.5-32.5c18.1-31.5,7.5-71.5-24-89.1l-257.1-148.8C3469.9,1796.8,3429.9,1807.5,3411.7,1838.9"/>
	<path id="path40" class="st0" d="M3603.2,1433.6h297.1c36.3,0,65.6-28.8,65.6-65.1c0-36.3-29.3-65.6-65.6-65.6h-297.1
		c-30.9,0-56.5,21.9-63.5,50.7v0.5c-1.1,4.8-1.6,9.6-1.6,14.4c0,3.7,0.5,7.5,1.1,11.2v2.1
		C3545.6,1411.7,3571.7,1433.6,3603.2,1433.6"/>
	<path id="path42" class="st0" d="M3437.3,922.7c9.6,5.3,20.3,8,31.5,8c10.7,0,21.9-2.7,32.5-8.5l257.1-148.8
		c31.5-18.1,42.1-58.1,24-89.1c-18.1-31.5-58.1-42.1-89.1-24l-257.6,148.3c-19.7,11.7-30.9,31.5-32.5,52.8v1.6
		c-0.5,11.7,2.1,24,8.5,35.2C3418.1,908.8,3427.2,917.3,3437.3,922.7"/>
	<path id="path44" class="st0" d="M3067.7,553.6c10.1,5.9,21.3,8.5,32.5,8.5c4.3,0,9.1-0.5,13.3-1.6c17.6-3.2,33.6-14.4,43.2-30.9
		l148.8-257.1c17.6-31.5,6.9-71.5-24-89.6c-31.5-18.1-71.5-6.9-89.6,24l-148.3,257.6c-9.6,16-11.2,34.7-6.4,51.2
		C3042.1,531.2,3052.3,545.1,3067.7,553.6"/>
</g>
</svg>
